<svg width="24" height="23" viewBox="0 0 24 23" fill="none" xmlns="http://www.w3.org/2000/svg">
<g id="TW-ORG">
<path id="Shape" fill-rule="evenodd" clip-rule="evenodd" d="M21.6887 0H3.19978C1.92867 0 0.888672 1.035 0.888672 2.3V20.7C0.888672 21.965 1.92867 23 3.19978 23H21.6887C22.9598 23 23.9998 21.965 23.9998 20.7V2.3C23.9998 1.035 22.9598 0 21.6887 0V0ZM19.0309 8.395C18.9153 13.685 15.5642 17.365 10.4798 17.595C8.39978 17.71 6.89756 17.02 5.51089 16.215C7.01312 16.445 8.97756 15.87 10.0176 14.95C8.51534 14.835 7.59089 14.03 7.12867 12.765C7.59089 12.88 8.05312 12.765 8.39978 12.765C7.01312 12.305 6.08867 11.5 5.97312 9.66C6.31978 9.89 6.78201 10.005 7.24423 10.005C6.20423 9.43 5.51089 7.245 6.31978 5.865C7.82201 7.475 9.67089 8.855 12.6753 9.085C11.8664 5.865 16.2576 4.14 17.9909 6.325C18.7998 6.21 19.3776 5.865 19.9553 5.635C19.7242 6.44 19.262 6.9 18.6842 7.36C19.262 7.245 19.8398 7.13 20.302 6.9C20.1864 7.475 19.6087 7.935 19.0309 8.395V8.395Z" fill="white"/>
</g>
</svg>
